<?xml version="1.0" encoding="UTF-8"?>
<svg width="233px" height="261px" viewBox="0 0 233 261" version="1.1" xmlns="http://www.w3.org/2000/svg" xmlns:xlink="http://www.w3.org/1999/xlink">
    <title>icon_tiktok</title>
    <g id="icon_tiktok" stroke="none" stroke-width="1" fill="none" fill-rule="evenodd">
        <g id="tiktok-logo-4501" transform="translate(6.000000, 4.000000)" fill="#FFFFFF" fill-rule="nonzero">
            <path d="M221.884137,63.2682773 C207.442068,63.2682773 194.114599,58.4842017 183.415003,50.4124778 C171.143175,41.1587728 162.324641,27.5870465 159.211061,11.9433438 C158.436176,8.07733898 158.023465,4.08780172 157.981352,0 L116.724315,0 L116.724315,112.734609 L116.673779,174.483998 C116.673779,190.992428 105.923646,204.990903 91.0211383,209.912549 C86.6975018,211.341595 82.0257284,212.018216 77.1602337,211.751498 C70.9527271,211.411784 65.1354708,209.536336 60.0790622,206.512598 C49.3176995,200.07768 42.0236687,188.401054 41.8243322,175.045509 C41.5126935,154.17133 58.3889134,137.154732 79.2462479,137.154732 C83.3649327,137.154732 87.3179717,137.825738 91.0211383,139.047025 L91.0211383,108.236904 L91.0211383,97.1610949 C87.1158277,96.5827383 83.1431358,96.2823298 79.1227154,96.2823298 C56.291669,96.2823298 34.9402046,105.77187 19.675522,122.869886 C8.13927383,135.79026 1.21864798,152.273422 0.151776648,169.559545 C-1.2463863,192.267059 7.06117228,213.85155 23.1765444,229.778816 C25.5433143,232.11751 28.030809,234.287751 30.630606,236.289539 C44.4465897,246.916139 61.3368473,252.680051 79.1255229,252.680051 C83.1431358,252.680051 87.1186352,252.38245 91.0239458,251.804094 C107.641871,249.341867 122.973935,241.736198 135.074501,229.773201 C149.943319,215.078452 158.158228,195.568745 158.245262,174.80406 L158.031888,82.5926861 C165.123775,88.064613 172.881052,92.5932011 181.202649,96.1054538 C194.14829,101.56615 207.874432,104.334401 222,104.331593 L222,74.3749694 L222,63.2598547 C222.010477,63.2682773 221.89256,63.2682773 221.884137,63.2682773 L221.884137,63.2682773 Z" id="Path"></path>
        </g>
    </g>
</svg>