<?xml version="1.0" encoding="UTF-8"?>
<svg width="532px" height="417px" viewBox="0 0 532 417" version="1.1" xmlns="http://www.w3.org/2000/svg" xmlns:xlink="http://www.w3.org/1999/xlink">
    <title>octachron_logo_pt_transp</title>
    <g id="octachron_logo_pt_transp" stroke="none" stroke-width="1" fill="none" fill-rule="evenodd">
        <g id="Group" transform="translate(-242.000000, 70.000000)" fill="#FFFFFF">
            <g id="Group-Copy" transform="translate(0.000000, 220.000000)" font-family="SFProRounded-Regular, SF Pro Rounded" font-size="60" font-weight="normal" letter-spacing="5.84134615">
                <text id="OCTACHRON">
                    <tspan x="304.92195" y="57">OCTACHRON</tspan>
                </text>
            </g>
            <g id="octachron_logo_neu22-copy-2@1x" transform="translate(408.000000, 0.000000)" fill-rule="nonzero">
                <path d="M100.082317,0 C130.600765,0 155.698497,23.8307412 157,54.0443448 L157,54.0443448 L157.042683,54.0443448 L157.042683,145.885032 C157.181656,151.664356 161.949556,156.277693 167.783537,156.277693 C173.617517,156.277693 178.385417,151.664356 178.52439,145.885032 C178.52439,140.008598 183.33187,135.244806 189.262195,135.244806 C195.192521,135.244806 200,140.008598 200,145.885032 C199.75759,163.344742 185.40503,177.372555 167.783537,177.372555 C150.162043,177.372555 135.809483,163.344742 135.567073,145.885032 L135.567073,145.885032 L135.567073,112.755921 L126.695122,112.755921 L126.695122,186.28285 C126.695122,192.159286 121.887642,196.923077 115.957317,196.923077 C110.026991,196.923077 105.219512,192.159286 105.219512,186.28285 L105.219512,186.28285 L105.219512,112.755921 L95.4085368,112.755921 L95.4085368,163.165582 C95.4085368,169.042017 90.6010577,173.80581 84.6707318,173.80581 C78.7404061,173.80581 73.9329269,169.042017 73.9329269,163.165582 L73.9329269,163.165582 L73.9329269,112.755921 L64.597561,112.755921 L64.7987805,163.72146 C64.5556763,181.280792 50.1214213,195.389003 32.3993902,195.389003 C14.6773593,195.389003 0.243104269,181.280792 0,163.72146 C0,157.811655 4.83477866,153.020812 10.7987805,153.020812 C16.7627823,153.020812 21.597561,157.811655 21.597561,163.72146 C21.5044893,167.599614 23.5392211,171.223304 26.9139396,173.189494 C30.2886582,175.155683 34.473537,175.155683 37.8482555,173.189494 C41.2229741,171.223304 43.2577059,167.599614 43.1646342,163.72146 L43.1646342,163.72146 L43.1158537,54.0443448 C44.4661364,23.8307412 69.5638696,0 100.082317,0 Z M123.907772,59.2309758 C120.168849,59.2060491 116.784201,61.4391468 115.336073,64.8863485 C113.887944,68.3335501 114.662413,72.3138598 117.297432,74.9665757 C119.93245,77.6192927 123.907472,78.4203707 127.364267,76.9953256 C130.821062,75.5702805 133.07712,72.2006293 133.07712,68.461606 C133.088271,66.0206563 132.127895,63.6754877 130.407655,61.9436935 C128.687414,60.2118995 126.348733,59.2358538 123.907772,59.2309758 Z M76.2154646,59.2309758 C72.4765415,59.2060491 69.091894,61.4391468 67.6437647,64.8863485 C66.1956366,68.3335501 66.9701037,72.3138598 69.6051232,74.9665757 C72.2401427,77.6192927 76.2151647,78.4203707 79.67196,76.9953256 C83.128754,75.5702805 85.3848127,72.2006293 85.3848127,68.461606 C85.3959633,66.0206563 84.4355875,63.6754877 82.7153463,61.9436935 C80.9951059,60.2118995 78.6564244,59.2358538 76.2154646,59.2309758 Z" id="Shape"></path>
            </g>
        </g>
    </g>
</svg>