<?xml version="1.0" encoding="UTF-8"?>
<svg width="255px" height="255px" viewBox="0 0 255 255" version="1.1" xmlns="http://www.w3.org/2000/svg" xmlns:xlink="http://www.w3.org/1999/xlink">
    <title>octachron_logo_icon_transp</title>
    <g id="octachron_logo_icon_transp" stroke="none" stroke-width="1" fill="none" fill-rule="evenodd">
        <path d="M99.135,177.246643 L98.97,135.459855 L106.625,135.459855 L106.625,176.795777 C106.625,181.614454 110.567133,185.520764 115.43,185.520764 C120.292867,185.520764 124.235,181.614454 124.235,176.795777 L124.235,135.459855 L132.28,135.459855 L132.28,195.751937 C132.28,200.570614 136.222133,204.476923 141.085,204.476923 C145.947867,204.476923 149.89,200.570614 149.89,195.751937 L149.89,135.459855 L157.165,135.459855 L157.165,162.625726 C157.363776,176.942688 169.132875,188.445495 183.5825,188.445495 C198.032125,188.445495 209.801224,176.942688 210,162.625726 C210,157.80705 206.057867,153.900741 201.195,153.900741 C196.332133,153.900741 192.39,157.80705 192.39,162.625726 C192.276042,167.364772 188.366364,171.147708 183.5825,171.147708 C178.798636,171.147708 174.888958,167.364772 174.775,162.625726 L174.775,87.3163627 L174.74,87.3163627 C173.672768,62.5412078 153.092627,43 128.0675,43 C103.042373,43 82.4622318,62.5412078 81.395,87.3163627 L81.355,87.3163627 L81.395,177.251597 C81.4713188,180.431683 79.8028387,183.403109 77.0355695,185.015385 C74.2683003,186.62766 70.8366997,186.62766 68.0694305,185.015385 C65.3021613,183.403109 63.6336812,180.431683 63.71,177.251597 C63.71,172.405557 59.7454815,168.477066 54.855,168.477066 C49.9645185,168.477066 46,172.405557 46,177.251597 C46.1993455,191.65025 58.0354346,203.218982 72.5675,203.218982 C87.0995654,203.218982 98.9356545,191.65025 99.135,177.251597 L99.135,177.246643 Z M147.604373,91.5694001 C144.538456,91.5489602 141.763045,93.3801003 140.57558,96.2068057 C139.388114,99.0335111 140.023178,102.297365 142.183894,104.472592 C144.344609,106.64782 147.604127,107.304704 150.438699,106.136167 C153.273271,104.96763 155.123077,102.204516 155.123077,99.1385169 C155.132382,97.1369381 154.344874,95.2138999 152.934277,93.7938287 C151.523679,92.3737576 149.605961,91.5734001 147.604373,91.5694001 L147.604373,91.5694001 Z M108.496681,91.5694001 C105.430764,91.5489602 102.655353,93.3801003 101.467887,96.2068057 C100.280422,99.0335111 100.915485,102.297365 103.076201,104.472592 C105.236917,106.64782 108.496435,107.304704 111.331007,106.136167 C114.165578,104.96763 116.015385,102.204516 116.015385,99.1385169 C116.02469,97.1369381 115.237182,95.2138999 113.826584,93.7938287 C112.415987,92.3737576 110.498268,91.5734001 108.496681,91.5694001 L108.496681,91.5694001 Z" id="Shape" fill="#FFFFFF"></path>
    </g>
</svg>