<?xml version="1.0" encoding="UTF-8"?>
<svg width="1458px" height="432px" viewBox="0 0 1458 432" version="1.1" xmlns="http://www.w3.org/2000/svg" xmlns:xlink="http://www.w3.org/1999/xlink">
    <title>octachron_logo_ls_transp</title>
    <g id="octachron_logo_ls_transp" stroke="none" stroke-width="1" fill="none" fill-rule="evenodd">
        <g id="Group" transform="translate(77.000000, 108.000000)" fill="#FFFFFF">
            <g id="Group-Copy" transform="translate(274.000000, 18.000000)" font-family="SFProRounded-Regular, SF Pro Rounded" font-size="150" font-weight="normal" letter-spacing="14.6033654">
                <text id="OCTACHRON">
                    <tspan x="7.3048753" y="143">OCTACHRON</tspan>
                </text>
            </g>
            <g id="octachron_logo_neu22-copy-2@1x" fill-rule="nonzero">
                <path d="M110.090549,0 C143.660841,0 171.268347,26.2138154 172.7,59.4487793 L172.7,59.4487793 L172.746952,59.4487793 L172.746952,160.473535 C172.899821,166.830792 178.144511,171.905462 184.56189,171.905462 C190.979269,171.905462 196.223959,166.830792 196.376829,160.473535 C196.376829,154.009457 201.665057,148.769287 208.188415,148.769287 C214.711773,148.769287 220,154.009457 220,160.473535 C219.733349,179.679216 203.945533,195.10981 184.56189,195.10981 C165.178247,195.10981 149.390432,179.679216 149.123781,160.473535 L149.123781,160.473535 L149.123781,124.031513 L139.364635,124.031513 L139.364635,204.911136 C139.364635,211.375214 134.076407,216.615385 127.553049,216.615385 C121.029691,216.615385 115.741464,211.375214 115.741464,204.911136 L115.741464,204.911136 L115.741464,124.031513 L104.94939,124.031513 L104.94939,179.48214 C104.94939,185.946219 99.6611634,191.186391 93.137805,191.186391 C86.6144467,191.186391 81.3262196,185.946219 81.3262196,179.48214 L81.3262196,179.48214 L81.3262196,124.031513 L71.0573171,124.031513 L71.2786585,180.093606 C71.0112439,199.408872 55.1335634,214.927903 35.6393293,214.927903 C16.1450952,214.927903 0.267414695,199.408872 0,180.093606 C0,173.592821 5.31825653,168.322893 11.8786585,168.322893 C18.4390606,168.322893 23.7573171,173.592821 23.7573171,180.093606 C23.6549382,184.359575 25.8931432,188.345634 29.6053336,190.508444 C33.317524,192.671251 37.9208907,192.671251 41.633081,190.508444 C45.3452715,188.345634 47.5834765,184.359575 47.4810976,180.093606 L47.4810976,180.093606 L47.427439,59.4487793 C48.91275,26.2138154 76.5202565,0 110.090549,0 Z M136.298549,65.1540733 C132.185734,65.126654 128.462621,67.5830614 126.86968,71.3749833 C125.276738,75.1669051 126.128654,79.5452458 129.027175,82.4632332 C131.925695,85.381222 136.298219,86.2624078 140.100694,84.6948582 C143.903169,83.1273086 146.384832,79.4206923 146.384832,75.3077667 C146.397098,72.6227219 145.340685,70.0430365 143.44842,68.1380629 C141.556155,66.2330895 138.983606,65.1594392 136.298549,65.1540733 Z M83.8370111,65.1540733 C79.7241956,65.126654 76.0010834,67.5830614 74.4081411,71.3749833 C72.8152003,75.1669051 73.6671141,79.5452458 76.5656356,82.4632332 C79.464157,85.381222 83.8366812,86.2624078 87.639156,84.6948582 C91.4416294,83.1273086 93.923294,79.4206923 93.923294,75.3077667 C93.9355596,72.6227219 92.8791463,70.0430365 90.9868809,68.1380629 C89.0946165,66.2330895 86.5220668,65.1594392 83.8370111,65.1540733 Z" id="Shape"></path>
            </g>
        </g>
    </g>
</svg>